<svg xmlns="http://www.w3.org/2000/svg" width="1200" height="760" viewBox="0 0 1200 760" role="img" aria-label="Claude Light Ghostty theme preview">
  <rect width="1200" height="760" fill="#EFEAE0"/>
  <text x="80" y="105" font-family="ui-monospace, SFMono-Regular, Menlo, Monaco, Consolas, monospace" font-size="22" fill="#1A1A1A" letter-spacing="4">CLAUDE LIGHT FOR GHOSTTY</text>
  <text x="80" y="185" font-family="Georgia, serif" font-size="78" font-weight="700" fill="#1A1A1A">Warm terminal palette</text>
  <text x="805" y="185" font-family="Georgia, serif" font-size="78" font-weight="700" fill="#CD6F47">for focus</text>

  <g transform="translate(80 250)">
    <rect x="0" y="0" width="1040" height="300" rx="18" fill="#E5DFD2"/>
    <rect x="0" y="0" width="1040" height="52" rx="18" fill="#DED6C8"/>
    <circle cx="30" cy="26" r="8" fill="#A94F3D"/>
    <circle cx="58" cy="26" r="8" fill="#A9793F"/>
    <circle cx="86" cy="26" r="8" fill="#6B8A6F"/>
    <text x="28" y="98" font-family="ui-monospace, SFMono-Regular, Menlo, Monaco, Consolas, monospace" font-size="22" fill="#6F6A60">$ ghostty +list-themes | rg Claude</text>
    <text x="28" y="144" font-family="ui-monospace, SFMono-Regular, Menlo, Monaco, Consolas, monospace" font-size="22" fill="#1A1A1A">Claude Light</text>
    <text x="28" y="190" font-family="ui-monospace, SFMono-Regular, Menlo, Monaco, Consolas, monospace" font-size="22" fill="#CD6F47">theme = Claude Light</text>
    <text x="28" y="236" font-family="ui-monospace, SFMono-Regular, Menlo, Monaco, Consolas, monospace" font-size="22" fill="#6B8A6F">minimum-contrast = 1.3</text>
  </g>

  <g transform="translate(80 600)">
    <rect x="0" y="0" width="150" height="80" rx="12" fill="#EFEAE0" stroke="#D5CEC1"/>
    <rect x="178" y="0" width="150" height="80" rx="12" fill="#E5DFD2"/>
    <rect x="356" y="0" width="150" height="80" rx="12" fill="#1A1A1A"/>
    <rect x="534" y="0" width="150" height="80" rx="12" fill="#CD6F47"/>
    <rect x="712" y="0" width="150" height="80" rx="12" fill="#BDCEC0"/>
    <rect x="890" y="0" width="150" height="80" rx="12" fill="#6B8A6F"/>
    <text x="0" y="112" font-family="ui-monospace, SFMono-Regular, Menlo, Monaco, Consolas, monospace" font-size="16" fill="#1A1A1A">#EFEAE0</text>
    <text x="178" y="112" font-family="ui-monospace, SFMono-Regular, Menlo, Monaco, Consolas, monospace" font-size="16" fill="#1A1A1A">#E5DFD2</text>
    <text x="356" y="112" font-family="ui-monospace, SFMono-Regular, Menlo, Monaco, Consolas, monospace" font-size="16" fill="#1A1A1A">#1A1A1A</text>
    <text x="534" y="112" font-family="ui-monospace, SFMono-Regular, Menlo, Monaco, Consolas, monospace" font-size="16" fill="#1A1A1A">#CD6F47</text>
    <text x="712" y="112" font-family="ui-monospace, SFMono-Regular, Menlo, Monaco, Consolas, monospace" font-size="16" fill="#1A1A1A">#BDCEC0</text>
    <text x="890" y="112" font-family="ui-monospace, SFMono-Regular, Menlo, Monaco, Consolas, monospace" font-size="16" fill="#1A1A1A">#6B8A6F</text>
  </g>
</svg>
